<svg xmlns="http://www.w3.org/2000/svg" viewBox="0 0 59.015 59.015"><path d="M57.756 26.999c2.034-2.607 1.153-5.051.458-5.904-1.52-2.286-3.618-3.695-6.236-4.188-.207-.039-.418-.052-.627-.078.27-.227.529-.455.773-.685 1.757-1.663 2.6-3.44 2.505-5.282-.146-2.819-2.484-4.646-2.584-4.723l-.047-.034c-4.119-2.797-8.743.588-8.938.734l-.176.168c-.072.088-.141.191-.212.282-.452-2.319-1.705-4.163-3.73-5.479-.475-.38-3.506-2.62-7.043-.823a6.35 6.35 0 0 0-1.208.827c-1.036-.293-2.188-.381-3.33.023-1.552.55-2.568 1.871-2.718 3.535a4.571 4.571 0 0 0 2.271 4.365c1.409.808 3.097 2.304 4.665 5.047-.933-.064-1.835.035-2.687.342C23.811 16.951 3.715 46.393.15 55.954c-.3.806-.144 1.649.409 2.203.367.367.862.56 1.39.56.267 0 .542-.049.813-.15 9.629-3.59 39.191-23.586 40.986-28.585a6.525 6.525 0 0 0 .37-2.136c2.742 1.343 4.192 2.65 4.948 3.688 1.102 1.512 2.879 2.446 4.651 2.446h.057c1.477-.017 2.788-.695 3.598-1.86 1.204-1.734.777-3.606.135-4.83.085-.098.173-.193.249-.291zm-1.16-4.732c.114.149 1.049 1.483-.3 3.347-.042-.05-.086-.095-.129-.144a17.56 17.56 0 0 0-.22-.247 16.779 16.779 0 0 0-.572-.609l-.177-.178c-3.13-3.066-6.698-4.031-9.936-4.031-1.148 0-2.255.121-3.286.31.111-.05.226-.1.339-.149.157-.069.314-.138.475-.206.173-.073.348-.144.526-.214.148-.059.3-.116.451-.173.278-.104.56-.205.847-.301.179-.06.358-.12.539-.175a23.098 23.098 0 0 1 1.124-.31 15.764 15.764 0 0 1 1.869-.355c1.174-.152 2.349-.167 3.466.042 2.096.395 3.711 1.484 4.984 3.393zM44.349 8.377c.582-.397 3.809-2.431 6.496-.637.179.147 1.696 1.45 1.787 3.226.063 1.23-.57 2.484-1.883 3.727-.769.728-1.705 1.448-2.783 2.141-.133.017-.265.044-.398.064-.28.042-.559.084-.836.138-.192.038-.38.083-.57.126-.219.05-.437.099-.653.156a27.146 27.146 0 0 0-1.792.544c-.179.062-.354.126-.529.191-.206.076-.412.151-.613.231-.136.054-.267.11-.401.165-.869.359-1.678.736-2.403 1.106l-.032.016a32.654 32.654 0 0 0 1.805-3.936c.034-.091.071-.179.104-.271.094-.259.18-.523.267-.788.047-.144.097-.287.141-.433.077-.251.144-.504.212-.759.043-.162.087-.323.126-.486a19.543 19.543 0 0 0 .255-1.26c.042-.251.076-.502.105-.753.01-.088.028-.175.037-.263a20.774 20.774 0 0 1 1.558-2.245zM32.843 2.752c2.549-1.269 4.77.552 4.86.627.035.03.071.057.109.082 1.609 1.033 2.56 2.422 2.906 4.245.148.778.17 1.594.109 2.424l-.007.09c-.13 1.575-.579 3.198-1.149 4.707a14.448 14.448 0 0 0-.167-2.941l-.017-.091a10.826 10.826 0 0 0-.223-1.041c-.028-.108-.056-.217-.088-.325a11.764 11.764 0 0 0-.166-.535l-.051-.145A11.868 11.868 0 0 0 36.54 5.8l-.096-.106a12.754 12.754 0 0 0-.514-.53c-.087-.085-.18-.169-.271-.253-.139-.128-.275-.257-.423-.382a15.799 15.799 0 0 0-.861-.692 9.394 9.394 0 0 0-.507-.403l-.005-.004c-.256-.191-.589-.42-.985-.655l-.035-.023zm-4.933 5.25a2.566 2.566 0 0 1-1.275-2.45c.038-.415.249-1.424 1.394-1.829.323-.115.656-.164.989-.164.53 0 1.06.128 1.559.313l.003.001.038.016c.172.065.341.135.503.212.08.038.155.078.233.117.13.067.259.135.379.204l.139.081c.536.323.949.643 1.152.808l.068.057c.023.021.047.04.072.059.436.323.837.664 1.21 1.018.106.101.193.206.293.308.255.26.503.524.726.799.098.121.182.244.272.366a9.124 9.124 0 0 1 .766 1.193c.188.347.359.703.504 1.07.023.057.049.114.071.171.703 1.876.863 4.005.467 6.378-.275 1.644-.779 3.137-1.257 4.291a40.34 40.34 0 0 0-.53-1.739c-.03-.093-.062-.182-.093-.274-.17-.507-.346-.994-.525-1.46l-.091-.238c-2.152-5.445-4.893-8.062-7.067-9.308zm13.956 21.303c-.539 1.499-4.297 4.767-9.365 8.555-.085-.035-.169-.074-.266-.085-1.633-.179-3.748-1.023-4.792-2.505a1 1 0 0 0-1.635 1.153c1.109 1.572 2.916 2.526 4.562 3.004a253.01 253.01 0 0 1-10.247 7.024.98.98 0 0 0-.538-.256c-1.025-.112-2.349-.635-2.994-1.549a1 1 0 1 0-1.634 1.154c.734 1.041 1.888 1.696 2.982 2.059-6.474 4.124-12.592 7.61-15.875 8.834l-.057.02a.534.534 0 0 1 .018-.059c.807-2.164 2.306-5.08 4.199-8.346.036.036.059.08.101.111.718.527 1.481.985 2.267 1.36a1.001 1.001 0 0 0 .863-1.804 12.2 12.2 0 0 1-1.947-1.168.972.972 0 0 0-.314-.145c2.341-3.913 5.152-8.212 7.998-12.302.381.991 1.01 1.993 1.946 2.654a.999.999 0 0 0 1.154-1.634c-.915-.646-1.437-1.969-1.549-2.995-.006-.057-.035-.104-.05-.158 2.214-3.111 4.395-6.021 6.341-8.453.477 1.648 1.432 3.461 3.007 4.572a.997.997 0 0 0 1.394-.24 1 1 0 0 0-.24-1.394c-1.482-1.046-2.326-3.161-2.505-4.792-.005-.043-.028-.078-.038-.119 2.251-2.678 4.035-4.473 4.92-4.791.49-.176.998-.264 1.529-.264a5.7 5.7 0 0 1 1.576.237c.44.994.842 2.074 1.208 3.224l.071.225c.151.486.294.988.432 1.499.031.115.063.224.094.341.158.607.309 1.228.448 1.868.009.042.03.079.044.12.014.039.024.08.043.117l.015.033c.017.031.041.055.061.083l.016.021c.023.031.042.065.068.093l.016.019h.001a.055.055 0 0 0 .009.007c.028.028.062.049.094.074l.021.017c.026.02.049.044.077.061.011.007.023.011.035.017.023.013.048.022.072.033.023.01.045.016.068.025.031.011.058.029.09.037.575.146 1.134.297 1.68.452.124.035.239.071.36.106.428.124.85.25 1.259.379.105.033.204.066.307.1.426.138.844.278 1.247.421l.208.074c.463.167.913.336 1.344.509l.003.001c.131.845.065 1.623-.202 2.366zm13.863 1.672c-.566.815-1.388.995-1.978 1.001h-.036c-1.143 0-2.302-.62-3.034-1.624-1.384-1.898-3.854-3.585-7.34-5.049-.006-.003-.01-.009-.017-.012l-.12-.047a47.162 47.162 0 0 0-2.673-.999 50.406 50.406 0 0 0-1.29-.415c-.165-.051-.315-.105-.483-.155.081-.032.173-.063.257-.095.03-.008.061-.001.09-.011 3.12-1.138 8.458-2.239 13.087.973.239.167.474.359.709.55.113.091.228.169.34.266.71.617 1.399 1.35 2.056 2.213l.127.169c.004.005.01.007.013.012.34.465 1.212 1.899.292 3.223z"/><path d="M40.378 28.941c-2.046-.78-3.945-2.182-5.642-4.167a1 1 0 1 0-1.52 1.3c1.917 2.242 4.087 3.836 6.45 4.737a1.002 1.002 0 0 0 1.291-.579 1.002 1.002 0 0 0-.579-1.291z"/></svg>