<svg xmlns="http://www.w3.org/2000/svg" viewBox="0 0 496 496"><path d="M472 272V168c0-13.232-10.768-24-24-24h-16c-6.168 0-11.744 2.408-16 6.24-4.256-3.84-9.832-6.24-16-6.24h-16c-6.168 0-11.744 2.408-16 6.24-4.256-3.84-9.832-6.24-16-6.24h-16c-13.232 0-24 10.768-24 24v102.656c-18.456-12.792-45.392-23.68-84.832-28.288l12.6-88.208c.152-1.064.232-2.144.232-3.224C240 138.288 229.712 128 217.064 128H144V56c0-4.408 3.592-8 8-8h64c13.232 0 24-10.768 24-24S229.232 0 216 0h-72c-26.472 0-48 21.528-48 48v80H22.936C10.288 128 0 138.288 0 150.936c0 1.08.08 2.16.232 3.248l19.28 134.944C.496 311.776 0 334.112 0 336c0 13.952 9.024 25.712 21.496 30.088A31.837 31.837 0 0 0 16 384c0 8.528 3.4 16.232 8.856 21.976C10.056 414.16 0 429.92 0 448c0 26.472 21.528 48 48 48h448V296c0-13.232-10.768-24-24-24zm-48-104c0-4.408 3.592-8 8-8h16c4.408 0 8 3.592 8 8v104h-32V168zm-48 0c0-4.408 3.592-8 8-8h16c4.408 0 8 3.592 8 8v104h-32V168zm-48 0c0-4.408 3.592-8 8-8h16c4.408 0 8 3.592 8 8v104h-32V168zM200 16h16c4.408 0 8 3.592 8 8s-3.592 8-8 8h-16V16zm-32 0h16v16h-16V16zm-56 32c0-17.648 14.352-32 32-32h8v16c-13.232 0-24 10.768-24 24v72h-16V48zM17.224 160l-1.152-8.056A6.945 6.945 0 0 1 22.936 144h194.128a6.945 6.945 0 0 1 6.936 6.936c0 .336-.024.672-.064.984l-1.16 8.08H200v16h20.488l-4.568 32H24.08l-4.568-32H184v-16H17.224zm196.416 64l-2.416 16.928A393.7 393.7 0 0 0 184 240h-16c-69.712 0-110.432 16.232-134.296 35.352L26.368 224H213.64zM16 336c0-.8 1.736-80 152-80h16c149.224 0 151.96 76.784 152 80 0 8.824-7.176 16-16 16H32c-8.824 0-16-7.176-16-16zm32 64c-8.824 0-16-7.176-16-16s7.176-16 16-16h256c8.824 0 16 7.176 16 16s-7.176 16-16 16H48zm222.608 16l-32.824 38.296L150.24 416h120.368zM304 480H48c-17.648 0-32-14.352-32-32s14.352-32 32-32h62.328l131.888 57.704L291.68 416H304c17.648 0 32 14.352 32 32s-14.352 32-32 32zm23.152-74.024C332.6 400.232 336 392.528 336 384c0-5.856-1.696-11.272-4.448-16H448v80h-96c0-5.616-1.024-10.984-2.8-16H400v-16h-60.32c-3.584-3.992-7.8-7.408-12.528-10.024zM480 320h-16v16h16v144H339.68a47.803 47.803 0 0 0 9.52-16H464V352H347.552c2.752-4.728 4.448-10.144 4.448-16h96v-16h-98.712c-2.6-8.896-7.736-20.44-17.752-32H472c4.408 0 8 3.584 8 8v24z"/><path d="M416 416h16v16h-16zM104 272h16v16h-16zM136 288h16v16h-16zM168 272h16v16h-16zM216 296h16v16h-16zM256 272h16v16h-16zM56 304h16v16H56z"/></svg>