<svg xmlns="http://www.w3.org/2000/svg" viewBox="0 0 512 512"><path d="M386.438 357.055L137.992 108.608a8.32 8.32 0 0 0-6.292-2.418 8.298 8.298 0 0 0-6.01 3.054c-.462.569-11.327 14.202-12.111 37.356-1.007 29.773 14.246 60.636 45.34 91.73l62.233 62.233c5.365 5.365 12.499 8.32 20.089 8.32 7.588 0 14.722-2.955 20.087-8.32a1.728 1.728 0 0 1 1.247-.516c.333 0 .819.09 1.246.516l10.058 10.058c.385.385.226 1.377-.133 2.157-4.909 10.735-2.599 23.559 5.751 31.908l59.655 59.656c6.519 6.519 15.081 9.778 23.643 9.778 8.563 0 17.125-3.259 23.643-9.778 13.038-13.037 13.038-34.25 0-47.287zm-11.727 35.558c-6.569 6.569-17.258 6.569-23.828 0l-59.655-59.656c-3.476-3.476-4.439-8.811-2.395-13.279 3.347-7.321 2.082-15.479-3.225-20.785l-10.058-10.058a18.232 18.232 0 0 0-12.976-5.375c-4.902 0-9.51 1.91-12.976 5.375a11.742 11.742 0 0 1-8.358 3.462c-3.157 0-6.126-1.23-8.359-3.462l-62.233-62.233c-48.158-48.158-42.879-83.249-36.647-98.526l240.71 240.709c6.57 6.57 6.57 17.259 0 23.828zM393.943 125.661a8.292 8.292 0 0 0-11.728 0l-52.931 52.931a8.293 8.293 0 0 0 0 11.73 8.27 8.27 0 0 0 5.864 2.43 8.261 8.261 0 0 0 5.864-2.43l52.931-52.932a8.295 8.295 0 0 0 0-11.729zM371.41 96.357a8.292 8.292 0 0 0-11.728 0l-53.954 53.954c-8.272 8.271-13.154 18.78-13.394 28.833l-.37 15.434-15.036 15.036a8.292 8.292 0 0 0 0 11.728 8.264 8.264 0 0 0 5.864 2.43c2.122 0 4.245-.81 5.864-2.43l17.383-17.383a8.299 8.299 0 0 0 2.427-5.665l.45-18.753c.138-5.749 3.33-12.292 8.54-17.503l53.953-53.953a8.291 8.291 0 0 0 .001-11.728zM229.627 325.534a8.292 8.292 0 0 0-11.728 0l-66.353 66.353c-3.183 3.183-7.414 4.935-11.914 4.935s-8.732-1.753-11.914-4.935a16.738 16.738 0 0 1-4.935-11.914c0-4.501 1.753-8.732 4.935-11.914l64.05-64.05a8.292 8.292 0 0 0 0-11.728 8.292 8.292 0 0 0-11.728 0l-64.05 64.05c-6.315 6.315-9.793 14.712-9.793 23.643 0 8.932 3.479 17.328 9.793 23.643 6.314 6.315 14.712 9.793 23.643 9.793 8.931 0 17.327-3.479 23.643-9.793l66.353-66.353c3.237-3.241 3.237-8.493-.002-11.73zM424.489 149.438a8.292 8.292 0 0 0-11.728 0l-53.952 53.952c-5.125 5.125-11.695 8.106-17.676 8.042l-19.496-.296a8.34 8.34 0 0 0-5.99 2.428l-17.384 17.384a8.292 8.292 0 0 0 0 11.728 8.27 8.27 0 0 0 5.864 2.43 8.261 8.261 0 0 0 5.864-2.43l14.902-14.902 15.988.242c10.504.161 21.301-4.542 29.656-12.898l53.952-53.952a8.292 8.292 0 0 0 0-11.728z"/><path d="M437.019 74.981C388.668 26.628 324.38 0 256 0S123.332 26.628 74.981 74.981 0 187.62 0 256s26.628 132.668 74.981 181.019S187.62 512 256 512s132.668-26.628 181.019-74.981S512 324.38 512 256s-26.628-132.668-74.981-181.019zm-11.728 350.31C380.071 470.51 319.95 495.413 256 495.413S131.929 470.51 86.709 425.291C41.491 380.071 16.587 319.949 16.587 256S41.491 131.929 86.709 86.709C131.929 41.491 192.051 16.587 256 16.587S380.071 41.49 425.291 86.709C470.51 131.929 495.413 192.05 495.413 256s-24.904 124.071-70.122 169.291z"/></svg>